<svg width="24" height="24" viewBox="0 0 24 24" fill="none" xmlns="http://www.w3.org/2000/svg">
<path d="M10 20H14C14 21.1 13.1 22 12 22C10.9 22 10 21.1 10 20ZM20 17.35V19H4V17.35L6 15.47V10.32C6 7.39998 7.56 5.09998 10 4.33998V3.95998C10 2.53998 11.49 1.45998 12.99 2.19998C13.64 2.51998 14 3.22998 14 3.95998V4.34998C16.44 5.09998 18 7.40998 18 10.33V15.48L20 17.35ZM19 17.77L17 15.89V10.42C17 7.94998 15.81 6.05998 13.87 5.31998C12.61 4.78998 11.23 4.81998 10.03 5.34998C8.15 6.10998 7 7.98998 7 10.42V15.89L5 17.77V18H19V17.77Z" fill="white"/>
</svg>
